# xmcd
#
# Track frame offsets:
# 182
# 17487
# 31757
# 46705
# 64530
# 78007
# 92602
# 108042
# 121957
# 138037
# 155150
# 171112
# 184782
# 201062
# 214755
#
# Disc length: 3037 seconds
#
#
# Revision: 1
# Processed by: cddbd v1.5.1PL0 Copyright (c) Steve Scherf et al.
# Submitted via: FreeRIP 2.93 
#
DISCID=ae0bdb0f
DTITLE=Truck Stop - Damenwahl
DYEAR=1999
DGENRE=Country
TTITLE0=Damenwahl (Western Dance Version)
TTITLE1=Schornsteinfeger
TTITLE2=Ich bin immer da für dich
TTITLE3=Ebbe und Flut
TTITLE4=Oh Mann, oh Mann
TTITLE5=Der Junge auf der Brücke
TTITLE6=Lady Harley
TTITLE7=Nach Cowboyart
TTITLE8=Auf die Piste geh´n
TTITLE9=Der Kaffee muss schwarz sein
TTITLE10=Wir sind nur für Stiefel gut
TTITLE11=Kleiner grüner Frosch
TTITLE12=Keinen Spaß ohne dich
TTITLE13=Damenwahl (Bluegrass Version)
TTITLE14=Die Cowboys der Nation
EXTD=
EXTT0=
EXTT1=
EXTT2=
EXTT3=
EXTT4=
EXTT5=
EXTT6=
EXTT7=
EXTT8=
EXTT9=
EXTT10=
EXTT11=
EXTT12=
EXTT13=
EXTT14=
PLAYORDER=
